# xmcd CD database file
# Copyright (C) 1996 Ti Kan
#
# Track frame offsets:
#  150
#  21880
#  38982
#  55730
#  74610
#  92647
#  112070
#  127575
#  140945
#  158655
#
# Disc length: 2466 seconds
#
# Revision: 2
# Processed by: cddbd v1.4b41PL1 Copyright (c) Steve Scherf et al.
# Submitted via: CDWizzard Release:4.12
#
DISCID=8909a00a
DTITLE=R. L. Burnside - Too Bad Jim
DYEAR=1900
DGENRE=
TTITLE0=Shake 'Em On Down
TTITLE1=When My First Wife Left Me
TTITLE2=Short-Haired Woman
TTITLE3=Old Black Mattie
TTITLE4=Fireman Ring The Bell
TTITLE5=Peaches
TTITLE6=Miss Glory B.
TTITLE7=44 Pistol
TTITLE8=Death Bell Blues
TTITLE9=Goin' Down South
EXTD=
EXTT0=
EXTT1=
EXTT2=
EXTT3=
EXTT4=
EXTT5=
EXTT6=
EXTT7=
EXTT8=
EXTT9=
PLAYORDER=
